<svg width="30" height="30" viewBox="0 0 30 30" fill="none" xmlns="http://www.w3.org/2000/svg">
<path d="M0 15C0 17.9667 0.879734 20.8668 2.52796 23.3335C4.17618 25.8003 6.51885 27.7229 9.25975 28.8582C12.0006 29.9935 15.0166 30.2906 17.9263 29.7118C20.8361 29.133 23.5088 27.7044 25.6066 25.6066C27.7044 23.5088 29.133 20.8361 29.7118 17.9263C30.2906 15.0166 29.9935 12.0006 28.8582 9.25975C27.7229 6.51885 25.8003 4.17618 23.3335 2.52796C20.8668 0.879734 17.9667 0 15 0C11.0217 0 7.20644 1.58035 4.3934 4.3934C1.58035 7.20644 0 11.0217 0 15V15Z" fill="#EF516D"/>
<path d="M21.8063 9.37497H8.19379C7.81064 9.37497 7.50004 9.68557 7.50004 10.0687V20.0156C7.50004 20.3987 7.81064 20.7093 8.19379 20.7093H21.8063C22.1894 20.7093 22.5 20.3987 22.5 20.0156V10.0687C22.5 9.68557 22.1894 9.37497 21.8063 9.37497Z" stroke="white" stroke-width="2" stroke-miterlimit="10"/>
<path d="M22.2375 9.76404L17.1235 15.2531C16.849 15.5405 16.5192 15.7693 16.1538 15.9257C15.7884 16.082 15.3951 16.1626 14.9977 16.1626C14.6003 16.1626 14.207 16.082 13.8416 15.9257C13.4762 15.7693 13.1463 15.5405 12.8719 15.2531L7.76254 9.76873" stroke="white" stroke-width="2" stroke-linejoin="round"/>
<path d="M17.9016 14.414L22.1016 20.3953" stroke="white" stroke-width="2" stroke-linejoin="round"/>
<path d="M12.1782 14.475L7.82817 20.3953" stroke="white" stroke-width="2" stroke-linejoin="round"/>
</svg>
