<svg width="31" height="30" viewBox="0 0 31 30" fill="none" xmlns="http://www.w3.org/2000/svg">
<path d="M15.3792 0C6.8861 0 0 6.8861 0 15.3792C0 22.1752 4.40614 27.9386 10.5178 29.9718C11.2866 30.1126 11.5673 29.6376 11.5673 29.2321C11.5673 28.866 11.5532 27.6533 11.5457 26.3692C7.26907 27.2984 6.36513 24.5557 6.36513 24.5557C5.66489 22.7797 4.65767 22.3066 4.65767 22.3066C3.26 21.3529 4.76371 21.3717 4.76371 21.3717C6.30781 21.4787 7.12075 22.9562 7.12075 22.9562C8.4931 25.3066 10.7215 24.627 11.5963 24.2328C11.7361 23.2415 12.1341 22.5619 12.5726 22.1789C9.15861 21.7903 5.56727 20.4706 5.56727 14.5776C5.56727 12.8973 6.16709 11.5269 7.14892 10.4502C6.99216 10.0597 6.46275 8.49496 7.30097 6.37828C7.30097 6.37828 8.59072 5.96527 11.5306 7.95525C12.7565 7.61264 14.0716 7.44368 15.3792 7.43804C16.6858 7.44368 18.0018 7.61451 19.2296 7.95711C22.1639 5.96527 23.4555 6.38014 23.4555 6.38014C24.2966 8.49872 23.7672 10.0616 23.6095 10.4502C24.5951 11.5269 25.1902 12.8974 25.1902 14.5776C25.1902 20.4856 21.5932 21.7866 18.1671 22.1677C18.7209 22.6445 19.2109 23.5794 19.2109 25.0137C19.2109 27.0694 19.1902 28.7271 19.1902 29.234C19.1902 29.6433 19.4699 30.122 20.249 29.9718C26.356 27.9349 30.7584 22.1714 30.7584 15.3792C30.7584 6.8861 23.8723 0 15.3792 0Z" fill="#EF516D"/>
</svg>
