<svg width="31" height="31" viewBox="0 0 31 31" fill="none" xmlns="http://www.w3.org/2000/svg">
<path fill-rule="evenodd" clip-rule="evenodd" d="M24.2095 22.8595V17.0035C24.2095 13.866 22.5345 12.406 20.3015 12.406C18.4995 12.406 17.692 13.3975 17.242 14.093V12.646H13.847C13.892 13.6045 13.847 22.8595 13.847 22.8595H17.242V17.1555C17.242 16.851 17.264 16.546 17.354 16.328C17.599 15.718 18.1575 15.0865 19.095 15.0865C20.324 15.0865 20.815 16.023 20.815 17.3955V22.86L24.2095 22.8595ZM10.2705 11.252C11.454 11.252 12.1915 10.467 12.1915 9.48655C12.1695 8.48505 11.454 7.72255 10.293 7.72255C9.13202 7.72255 8.37252 8.48455 8.37252 9.48655C8.37252 10.467 9.10952 11.252 10.249 11.252H10.2705ZM15.791 30.791C7.50702 30.791 0.791016 24.075 0.791016 15.791C0.791016 7.50655 7.50702 0.791046 15.791 0.791046C24.075 0.791046 30.791 7.50655 30.791 15.791C30.791 24.075 24.075 30.791 15.791 30.791ZM11.968 22.8595V12.646H8.57352V22.8595H11.968Z" fill="#EF516D"/>
</svg>
